<?xml version="1.0" encoding="UTF-8"?>
<svg version="1.1" viewBox="0 0 48 48" xmlns="http://www.w3.org/2000/svg" xmlns:xlink="http://www.w3.org/1999/xlink">
<defs>
<linearGradient id="c" x1="72.839" x2="98.156" y1="52.81" y2="24.853" gradientTransform="matrix(.4124 -.41136 .37346 .41442 15.906 47.017)" gradientUnits="userSpaceOnUse">
<stop stop-color="#3f3f3f" offset="0"/>
<stop stop-color="#232629" offset="1"/>
</linearGradient>
<linearGradient id="b" x1="6.615" x2="6.615" y1="1.0586" y2="11.642" gradientTransform="matrix(3.7795 0 0 3.7795 .0006346 .010137)" gradientUnits="userSpaceOnUse">
<stop stop-color="#3ba8e5" offset="0"/>
<stop stop-color="#328fc5" offset="1"/>
</linearGradient>
<radialGradient id="a" cx="20.865" cy="17.341" r="18.883" gradientTransform="matrix(1.3535 0 0 1.1295 -7.5084 .1996)" gradientUnits="userSpaceOnUse">
<stop offset="0"/>
<stop stop-opacity="0" offset="1"/>
</radialGradient>
</defs>
<rect x="3.9993" y="4.0088" width="40" height="40" rx="5" ry="5" fill="url(#b)" stroke-width="3.7795" paint-order="stroke fill markers"/>
<path d="m25.359 12.492-4.0039 6.832-15.121 11.215 13.469 13.471h19.297c2.77 0 5-2.23 5-5v-10.234l-7.918-7.918-3.2266-0.86914-7.4961-7.4961z" fill="url(#a)" opacity=".25116" stroke-linecap="round" stroke-width="3.7795"/>
<path d="m9 8c-1.662 0-3 1.338-3 3v4h2v-4c0-0.554 0.446-1 1-1h4v-2zm26 0v2h4c0.554 0 1 0.446 1 1v4h2v-4c0-1.662-1.338-3-3-3zm-29 27v4c0 1.662 1.338 3 3 3h4v-2h-4c-0.554 0-1-0.446-1-1v-4zm34 0v4c0 0.554-0.446 1-1 1h-4v2h4c1.662 0 3-1.338 3-3v-4z" opacity=".2"/>
<path d="m8.9965 4.011a4.989 4.989 0 0 0-4.9965 4.9965v1.0016c0-2.7704 2.2299-5.0003 5.0003-5.0003h29.998c2.7704 0 5.0003 2.2299 5.0003 5.0003v14.003h0.0038v-15.001a4.989 4.989 0 0 0-5.0003-5.0003z" fill="#fff" opacity=".6" stroke-width="3.7795"/>
<path d="m8.9934 44.009a4.989 4.989 0 0 1-4.9965-4.9965v-1.0016c0 2.7704 2.2299 5.0003 5.0003 5.0003h29.998c2.7704 0 5.0003-2.2299 5.0003-5.0003v-14.003h0.0038v15.001a4.989 4.989 0 0 1-5.0003 5.0003z" fill="#12311b" opacity=".3" stroke-width="3.9784"/>
<path d="m9 7c-1.662 0-3 1.338-3 3v4h2v-4c0-0.554 0.446-1 1-1h4v-2h-4zm26 0v2h4c0.554 0 1 0.446 1 1v4h2v-4c0-1.662-1.338-3-3-3h-4zm-29 27v4c0 1.662 1.338 3 3 3h4v-2h-4c-0.554 0-1-0.446-1-1v-4h-2zm34 0v4c0 0.554-0.446 1-1 1h-4v2h4c1.662 0 3-1.338 3-3v-4h-2z" fill="#da4453"/>
<g transform="matrix(.75003 0 0 .75003 -25.219 6.5481)">
<path d="m87.027 30.968c-0.2746-1.6368-0.29137-3.4529-1.3581-5.9418-1.0669-2.489-2.323-4.36-3.939-5.9453-1.6164-1.5856-3.4606-2.7914-5.7795-3.6265-2.319-0.8353-5.0461-1.2583-6.6636-1.7097-1.6173-0.4513-2.1161-0.9291-2.4081-1.5113-0.292-0.5821-0.377-1.2698-0.28-1.9015 0.0968-0.6317 0.3766-1.2138 0.5957-1.616 0.2193-0.4022 0.3811-0.631 0.246-0.7803s-0.5665-0.2214-1.2461 0.1712c-0.6797 0.3926-1.6058 1.2494-2.1585 1.9511-0.5526 0.7018-0.7283 1.2444-1.031 1.7984-0.3025 0.554-0.7286 1.1123-1.2275 1.56-0.4989 0.4476-1.0648 0.7783-2.318 1.4247-1.2533 0.6465-3.188 1.6054-5.1255 2.767-1.9373 1.1619-3.8754 2.5256-5.6173 3.9782s-3.2867 2.9936-4.3625 4.3347c-1.0757 1.341-1.6815 2.4811-2.0484 3.5172-0.367 1.0362-0.4944 1.967-0.3713 2.5481 0.1232 0.5811 0.4968 0.811 2.8857 0.3113s6.797-1.7306 9.5035-2.4048c2.7068-0.6745 1.0574-3.4622 1.8326-3.7238 0.775-0.2615 3.9809 2.0016 4.8662 1.6541 0.8851-0.3474 2.1236-0.6422 3.3745-0.936 1.2509-0.2937 2.523-0.5884 3.203-0.8495 0.6802-0.261 0.7748-0.4897 2.3416-0.5445 1.567-0.0549 4.6064 0.0624 6.7012 0.3519 2.0948 0.2894 3.2442 0.751 4.039 1.2814s1.2351 1.1299 1.6574 1.5801c0.4224 0.4503 0.8262 0.7505 1.427 1.3246 0.6008 0.574 1.3967 1.4204 2.0056 2.7065s1.0293 3.01 1.2902 3.3361-0.48013-2.0081-0.27493-2.6409c0.205-0.633 0.5148-0.8276 0.24-2.4643z" fill="#eff0f1"/>
<path d="m88.393 33.133c0.38856-0.53749 0.92765-1.3219 0.8446-1.6009-0.0831-0.27899-0.78709-0.05283-1.4508-1.152-0.66374-1.0992-1.2846-3.5192-2.2296-5.6761-0.94493-2.157-2.209-4.04-3.8253-5.6255-1.6164-1.5856-3.4605-2.7913-5.7794-3.6265-2.3189-0.83529-5.0462-1.2583-6.6635-1.7096-1.6173-0.45127-2.1161-0.92907-2.4081-1.5113-0.29202-0.58214-0.37694-1.2698-0.28007-1.9015 0.09688-0.63175 0.37663-1.2139 0.59579-1.6161 0.21924-0.4022 0.3811-0.63093 0.24603-0.78029-0.13507-0.14936-0.56653-0.22137-1.2462 0.17124-0.6797 0.39256-1.6058 1.2494-2.1584 1.9511-0.55264 0.70179-0.72832 1.2444-1.031 1.7984-0.3026 0.55389-0.72865 1.1123-1.2276 1.5599-0.49892 0.44761-1.0648 0.77834-2.318 1.4248-1.2533 0.64645-3.1881 1.6054-5.1255 2.7671-1.9373 1.1618-3.8754 2.5255-5.6173 3.9781-1.7419 1.4526-3.2868 2.9936-4.3624 4.3346-1.0757 1.3409-1.6815 2.4811-2.0485 3.5172-0.36688 1.0362-0.49437 1.9671-0.37121 2.5481 0.12312 0.58111 0.49679 0.81093 1.2169 0.4616 0.72006-0.34933 1.7836-1.2762 2.7233-2.0461 0.93973-0.76983 1.7553-1.3823 2.6641-1.8533 0.90875-0.47104 1.912-0.80135 2.7909-0.99128 0.87887-0.18997 1.6344-0.23976 2.0451-0.08037 0.41067 0.15948 0.47688 0.52901 0.51008 0.7141 0.0332 0.18518 0.0034 0.81798 0.10888 0.98147 0.10548 0.16345 0.31563 0.48894 1.0981 0.47993 0.7825-9e-3 11.828-3.3539 12.508-3.6149 0.6801-0.26107 0.77502-0.49039 1.0589-1.2077 0.28393-0.71737 0.76169-1.9347 1.3388-2.8277 0.57707-0.89306 1.2597-1.473 1.8736-1.7508 0.61396-0.27772 1.1673-0.2579 1.8553-0.14095 0.68794 0.11686 1.5164 0.33161 2.1529 0.65021 0.6365 0.31864 1.0849 0.74228 1.3257 1.1388 0.24081 0.39644 0.27355 0.76551 0.0471 1.1257-0.22637 0.36022-0.70762 0.70726-1.0912 0.82106-0.38364 0.11385-0.66085-0.0097-1.1189-0.05565-0.45812-0.04597-1.0944-0.01335-1.8029 0.30725-0.70845 0.32051-1.6294 1.1335-1.4692 1.4206 6.5776-0.0821 12.435 3.7239 14.002 7.2192 0.50315 1.1226 1.0293 3.01 1.2902 3.3361 0.26086 0.32606 0.36155-0.74569 0.53139-1.4272 0.16977-0.68148 0.40892-0.97338 0.79748-1.5109z" fill="url(#c)" stroke-width=".56968"/>
<path d="m53.987 18.681 1.7426 3.6005 3.6005-1.7426-1.7427-3.6005zm5.4007-2.614 1.7426 3.6006 3.6005-1.7427-1.7426-3.6004zm-4.065 3.0785 1.8003-0.8713 0.8713 1.8002-1.8002 0.8713zm5.4008-2.614 1.8002-0.8713 0.8713 1.8003-1.8002 0.8713zm-4.1226 7.5502 1.7426 3.6005 3.6005-1.7427-1.7426-3.6004zm5.4007-2.614 0.8713 1.8003 1.8002-0.8713-0.8713-1.8002zm-4.065 3.0785 1.8003-0.8713 0.8713 1.8002-1.8002 0.8713z" color="#232629" fill="#eff0f1" stroke-width="2"/>
<path d="m67.023 7.8157c-0.20971 0.012403-0.48566 0.092749-0.82548 0.28905-0.33985 0.19628-0.74199 0.50835-1.1276 0.85934-0.19278 0.1755-0.38212 0.36171-0.55727 0.54685-0.17515 0.18514-0.33579 0.36881-0.47394 0.54425-0.55264 0.70179-0.72856 1.2454-1.0312 1.7994-0.1513 0.27694-0.33494 0.55549-0.54164 0.82028-0.10373 0.13288-0.21282 0.26102-0.32811 0.3854-0.11445 0.12346-0.23509 0.24264-0.35936 0.35415-0.49892 0.44761-1.0644 0.77801-2.3176 1.4244-0.62664 0.32322-1.4221 0.7243-2.3046 1.1901-0.88236 0.46601-1.8515 0.99722-2.8202 1.5781-1.9373 1.1618-3.875 2.5238-5.6169 3.9764-0.87044 0.72589-1.6915 1.4768-2.4296 2.2108-0.36913 0.36737-0.71837 0.73004-1.0416 1.0859-0.32331 0.35574-0.62168 0.70378-0.89059 1.039-0.53784 0.67046-0.95959 1.2899-1.2916 1.8723-0.33178 0.58218-0.5743 1.1277-0.75778 1.6458-0.18344 0.51809-0.30744 1.0078-0.36978 1.4426-1.13e-4 7.84e-4 1.13e-4 0.001819 0 0.002604-0.061943 0.4337-0.064052 0.8116-0.002604 1.1015 0.038983 0.184 0.10825 0.32855 0.20051 0.43488 0.016691 0.019046 0.030941 0.041037 0.049477 0.057289 0.081344 0.07132 0.18081 0.11704 0.29947 0.1302 0.11865 0.013167 0.2552-0.005226 0.41404-0.057289 0.079371-0.026013 0.16519-0.060496 0.2552-0.10416 0.010296-0.004995 0.023417-0.015603 0.033852-0.020832 0.04482-0.49428 0.16702-1.0685 0.388-1.6926 0.36695-1.0361 0.9711-2.1772 2.0468-3.5181 1.0756-1.341 2.6199-2.8805 4.3618-4.3331 1.7419-1.4526 3.6822-2.8172 5.6196-3.979 1.9374-1.1617 3.8715-2.1217 5.1248-2.7681 1.2532-0.64641 1.8187-0.97681 2.3176-1.4244 0.49892-0.44769 0.92391-1.0059 1.2265-1.5598 0.30264-0.55401 0.47856-1.095 1.0312-1.7968 0.35829-0.455 0.87158-0.96619 1.3749-1.3828 7.2e-4 -0.0027522 0.001878-0.0050629 0.002604-0.0078121 0.059454-0.22528 0.13732-0.42981 0.22134-0.62758 0.097585-0.23238 0.1991-0.44514 0.29426-0.61976 0.16539-0.30341 0.29701-0.50725 0.29426-0.65362-5.11e-4 -0.048818-0.01571-0.090259-0.049477-0.1276-0.067533-0.074679-0.20955-0.12959-0.41925-0.11718zm-0.40884 2.453c-0.1707 0.45186-0.11198 1.4226 0.17447 2.552 0.03036 0.07668 0.054202 0.15552 0.091142 0.22916 0.29198 0.58218 0.79141 1.0591 2.4088 1.5104 1.6174 0.45131 5.613 1.3521 7.932 2.1874 2.1219 0.7642 3.8431 1.8424 5.3591 3.2342-0.27219-0.30973-0.55335-0.61368-0.84892-0.90361-1.6164-1.5856-3.4595-2.7897-5.7784-3.6248-0.57973-0.20882-1.1845-0.393-1.7916-0.55727-1.8211-0.49251-3.6592-0.81511-4.8722-1.1536-1.6173-0.45127-2.1168-0.92817-2.4088-1.5104-0.29202-0.58214-0.37551-1.2693-0.27863-1.901 0.003259-0.021247 0.009358-0.041368 0.013021-0.062498z" fill="#fff" opacity=".1093" stroke-width=".56968"/>
</g>
</svg>
