<svg xmlns="http://www.w3.org/2000/svg" viewBox="0 0 54 54">
  <defs>
    <linearGradient id="a" x1="117" x2="117" y1="69" y2="16.5" gradientTransform="matrix(1.1428 0 0 1.1429 -106.7 -27.857)" gradientUnits="userSpaceOnUse">
      <stop offset="0" stop-color="#2c3e50"/>
      <stop offset="1" stop-color="#34495e"/>
    </linearGradient>
    <linearGradient id="e" x1="72.839" x2="98.156" y1="52.81" y2="24.853" gradientUnits="userSpaceOnUse">
      <stop offset="0" stop-color="#4d4d4d"/>
      <stop offset="1" stop-color="#232629"/>
    </linearGradient>
    <linearGradient id="b" x1="30" x2="30" y1="51" y2="-15" gradientUnits="userSpaceOnUse">
      <stop offset="0" stop-color="#3498db"/>
      <stop offset="1" stop-color="#3daee9"/>
    </linearGradient>
    <filter id="c" width="2.1232" height="2.1232" x="-.5616" y="-.5616" color-interpolation-filters="sRGB">
      <feGaussianBlur stdDeviation="7.02"/>
    </filter>
    <linearGradient id="d" x1="34" x2="40.372" y1="8" y2="45.42" gradientUnits="userSpaceOnUse">
      <stop offset="0"/>
      <stop offset="1" stop-color="#3daee9" stop-opacity="0"/>
    </linearGradient>
  </defs>
  <rect width="47.996" height="48" x="3.0038" y="3" fill="url(#a)" stroke-dashoffset="24.945" stroke-linecap="square" stroke-linejoin="round" stroke-width=".4319" paint-order="markers fill stroke" ry="3"/>
  <rect width="48.125" height="47.031" x="3" y="3" fill="url(#b)" stroke-dashoffset="24.945" stroke-linecap="square" stroke-linejoin="round" stroke-width=".4281" paint-order="markers fill stroke" ry="2.9395"/>
  <path fill="#3daee9" stroke-dashoffset="24.945" stroke-linecap="square" stroke-linejoin="round" stroke-width=".3604" d="M12 12h30v30H12z" filter="url(#c)" opacity=".415" paint-order="markers fill stroke"/>
  <path fill="url(#d)" d="M30 24l-15 5-11.5156 5.5 15.5312 15.5313h29.17a2.933 2.933 0 0 0 2.9394-2.9395V34.1172l-.5938-.5938-.2578.125L48 32l-5-4-4-1-4-2-5-1z"/>
  <path fill="#eff0f1" d="M49.202 34.292c-.2746-1.6368-1.133-4.7153-2.1997-7.2042-1.0669-2.489-2.323-4.36-3.939-5.9453-1.6164-1.5856-3.4606-2.7914-5.7795-3.6265-2.319-.8353-5.0461-1.2583-6.6636-1.7097-1.6173-.4513-2.1161-.9291-2.4081-1.5113-.292-.5821-.377-1.2698-.28-1.9015.0968-.6317.3766-1.2138.5957-1.616.2193-.4022.3811-.631.246-.7803s-.5665-.2214-1.2461.1712c-.6797.3926-1.6058 1.2494-2.1585 1.9511-.5526.7018-.7283 1.2444-1.031 1.7984-.3025.554-.7286 1.1123-1.2275 1.56-.4989.4476-1.0648.7783-2.318 1.4247-1.2533.6465-3.188 1.6054-5.1255 2.767-1.9373 1.1619-3.8754 2.5256-5.6173 3.9782s-3.2867 2.9936-4.3625 4.3347c-1.0757 1.341-1.6815 2.4811-2.0484 3.5172-.367 1.0362-.4944 1.967-.3713 2.5481.1232.5811.4968.811 2.8857.3113s6.797-1.7306 9.5035-2.4048c2.7068-.6745 3.724-.7956 4.4992-1.0572.775-.2615 1.3143-.665 2.1996-1.0125.8851-.3474 2.1236-.6422 3.3745-.936 1.2509-.2937 2.523-.5884 3.203-.8495.6802-.261.7748-.4897 2.3416-.5445 1.567-.0549 4.6064.0624 6.7012.3519 2.0948.2894 3.2442.751 4.039 1.2814s1.2351 1.1299 1.6574 1.5801c.4224.4503.8262.7505 1.427 1.3246.6008.574 1.3967 1.4204 2.0056 2.7065s1.0293 3.01 1.2902 3.3361.3615-.7457.5667-1.3785c.205-.633.5148-.8276.24-2.4643z"/>
  <path fill="url(#e)" d="M108.54 74.2384c1.1147-.1905 2.7058-.504 2.9208-.9638.215-.4598-.9443-1.0648-.527-3.3029s2.4093-6.1003 3.6847-10.039c1.2755-3.9387 1.8283-7.9338 1.5888-11.9974-.2394-4.0637-1.2068-7.9334-3.2069-11.934-2-4.0008-4.9958-7.9952-6.5418-10.6188-1.546-2.6235-1.6331-3.8629-1.336-4.9728.297-1.1099.9799-2.0914 1.8305-2.7713.8507-.68 1.8778-1.0651 2.6205-1.2984.7428-.2332 1.2127-.3187 1.2121-.6797-.0006-.361-.4687-.9994-1.7884-1.362-1.3197-.3627-3.4883-.4478-5.0015-.2565-1.5133.1913-2.362.6581-3.386.9785-1.0238.3203-2.2104.4898-3.3627.4263-1.1522-.0636-2.2554-.3606-4.5996-1.1277-2.3443-.7671-5.9185-2.001-9.7293-2.9805-3.8109-.9793-7.855-1.703-11.751-2.065-3.896-.362-7.642-.362-10.5587-.0214-2.9167.3405-5.0024 1.0215-6.6633 1.873-1.6609.8517-2.8949 1.873-3.4063 2.7675-.5115.8945-.2988 1.6602 1.0227 2.129 1.3215.4688 3.7462.639 5.8321.8518 2.0859.2129 3.8322.4684 5.5346 1.0218 1.7025.5533 3.3637 1.4052 4.7046 2.2779 1.3409.8726 2.363 1.767 2.704 2.4901.3409.7232.0002 1.2767-.1704 1.554-.1707.2774-.937 1.0437-.9904 1.3852-.0534.3414-.1596 1.0214.85 2.0018 1.0096.9804 3.138 2.262 4.871 3.1888 1.733.9269 3.081 1.5048 4.7102 2.2908 1.6291.786 3.5485 1.7843 5.4838 2.8988 1.9353 1.1146 3.899 2.3526 5.0678 2.8829 1.1689.5303 1.554.3592 2.742-.1924 1.1881-.5517 3.199-1.493 4.9636-1.8963 1.7646-.4034 3.3037-.2751 4.4073.1501 1.1036.4253 1.7874 1.1519 2.5313 2.1725.744 1.0205 1.5548 2.3435 2.001 3.5552.4461 1.2117.5312 2.3184.3825 3.1275-.1487.809-.5316 1.3195-1.2352 1.4902-.7036.1708-1.7175.0018-2.3383-.3398-.6209-.3416-.8327-.85-1.3648-1.489-.5321-.6391-1.3822-1.4042-2.6558-1.8948-1.2735-.4907-2.9665-.7034-3.0923-.1356-.1257.5679 1.3194 1.9175 2.6507 3.3437 1.3313 1.4262 2.5534 2.9333 3.7007 4.6864 1.1473 1.753 2.2193 3.7513 2.6917 5.4102.4723 1.659.3446 2.9786.3659 4.0861.0212 1.1075.1913 2.0009.2979 3.4919.1065 1.491.149 3.5754-.5535 5.9815-.7025 2.4061-2.1494 5.1297-2.1915 5.8747-.0421.745 1.3198-.4893 2.3209-1.14 1.001-.6508 1.6423-.7186 2.757-.9091z" transform="matrix(.4124 -.41136 .37346 .41442 -22.761 49.078)"/>
  <g fill="#da4453" stroke-dashoffset="24.945" stroke-linecap="square" stroke-linejoin="round" stroke-width=".4318">
    <path d="M6 47.001c.0032.5497.45.9935 1 .9935h8v-1.9987H8V39H6v8.0009zM6.9992 6c-.5496.0032-.9935.45-.9935 1v8.0001h1.9988v-7H15V6H6.999zM48 47.001c-.0032.5497-.45.9935-1 .9935h-8v-1.9987h7V39h2v8.0009zM47.0007 6c.5497.0032.9936.45.9936 1v8.0001h-1.9988v-7H39V6h8.001z" paint-order="markers fill stroke"/>
  </g>
  <path fill="#eff0f1" stroke-width="2" d="M15.3196 20.7426l1.7426 3.6005 3.6005-1.7426L18.92 19zm5.4007-2.614l1.7426 3.6006 3.6005-1.7427-1.7426-3.6004zm-4.065 3.0785l1.8003-.8713.8713 1.8002-1.8002.8713zm5.4008-2.614l1.8002-.8713.8713 1.8003-1.8002.8713zm-4.1226 7.5502l1.7426 3.6005 3.6005-1.7427-1.7426-3.6004-3.6005 1.7426zm5.4007-2.614l.8713 1.8003 1.8002-.8713-.8713-1.8002zm-4.065 3.0785l1.8003-.8713.8713 1.8002-1.8002.8713z" color="#232629"/>
</svg>
