<?xml version="1.0" encoding="UTF-8"?>
<svg id="svg94" width="1024" height="500" version="1.1" viewBox="0 0 1024 500" xml:space="preserve" xmlns="http://www.w3.org/2000/svg" xmlns:xlink="http://www.w3.org/1999/xlink">
    <defs id="defs9">
        <linearGradient id="c" x1="72.839" x2="98.156" y1="52.81" y2="24.853" gradientTransform="matrix(.4124 -.41136 .37346 .41442 15.906 47.017)" gradientUnits="userSpaceOnUse">
        <stop id="stop1" stop-color="#3f3f3f" offset="0"/>
        <stop id="stop2" stop-color="#232629" offset="1"/>
        </linearGradient>
        <radialGradient id="a" cx="20.865" cy="17.341" r="18.883" gradientTransform="matrix(.38671 0 0 .32271 205.57 21.486)" gradientUnits="userSpaceOnUse">
        <stop id="stop5" offset="0"/>
        <stop id="stop6" stop-opacity="0" offset="1"/>
        </radialGradient>
        <linearGradient id="linearGradient16" x1="72.839" x2="98.156" y1="52.81" y2="24.853" gradientTransform="matrix(.4124 -.41136 .37346 .41442 15.906 47.017)" gradientUnits="userSpaceOnUse" xlink:href="#c"/>
        <linearGradient id="linearGradient1" x1="72.839" x2="98.156" y1="52.81" y2="24.853" gradientTransform="matrix(.088375 -.088152 .08003 .088808 203.92 33.375)" gradientUnits="userSpaceOnUse" xlink:href="#c"/>
    </defs>
    <g id="g1">
        <rect id="rect34" width="1024" height="500" fill="#3ba8e5"/>
        <g id="g1780" transform="matrix(3.3,0,0,3.3,610,150)" fill="#ffffff" stroke-width=".079516">
        <path id="path1176" d="m64.863 39.705c-0.19859-0.0098-0.39042 0.05001-0.54845 0.20805l-3.4261 3.4261c-0.31607 0.31607-0.31607 0.8249 0 1.141l3.5396 5.56c-0.28331 0.57157-0.52863 1.1612-0.7344 1.7651l-6.4299 1.4278c-0.44702 0-0.80689 0.35986-0.80689 0.80689v4.8413c0 0.44702 0.37053 0.70992 0.80689 0.80689l6.4331 1.431c0.19926 0.59792 0.4372 1.1823 0.71234 1.7493l-3.5459 5.5726c-0.24001 0.37712-0.31607 0.8249 0 1.141l3.423 3.4261c0.31607 0.31607 0.8249 0.31607 1.141 0l5.5726-3.5491c0.57645 0.28716 1.1714 0.53564 1.7808 0.74385l1.4278 6.4299c0 0.44702 0.35986 0.80689 0.80689 0.80689h4.8413c0.44702 0 0.70992-0.37053 0.80689-0.80689l1.431-6.4331c0.60682-0.20232 1.1996-0.44446 1.7745-0.72494l5.5474 3.5333c0.31607 0.31607 0.8249 0.31607 1.141 0l3.4261-3.4261c0.31607-0.31607 0.24001-0.76386 0-1.141l-1.5129-2.3765-1.1284 0.45074-3.6152-5.4213c-1.8219 4.0512-5.849 6.6586-10.291 6.6631-6.2389 0-11.296-5.0576-11.296-11.296 5e-3 -4.3585 2.5171-8.3254 6.4551-10.193v-3.4734c-0.54302 0.18585-1.0745 0.40371-1.5917 0.65244l-5.5474-3.5333c-0.18859-0.11997-0.39396-0.19853-0.59255-0.20805z"/>
        <path id="path1178" d="m82.277 32.254-8.0689 0.747v31.529l8.0689-1.6138v-12.91l9.6827 14.524 8.0689-3.2276-10.49-13.578 10.496-13.856-8.4503-1.6138-9.3076 13.717z"/>
    </g>
    <g id="g2300" transform="matrix(30.586 0 0 30.586 -6050.6 -613.93)" stroke-width=".028674">
        <path id="path6" d="m214.96 24.998-1.144 1.952-4.3203 3.2043 3.8483 3.8489h5.5134c0.79142 0 1.4286-0.63714 1.4286-1.4286v-2.924l-2.2623-2.2623-0.92188-0.24833-2.1418-2.1417z" fill="url(#a)" opacity=".25116" stroke-linecap="round" stroke-width=".12357"/>
        <path id="path7" d="m210.29 23.714c-0.47486 0-0.85714 0.38229-0.85714 0.85714v1.1429h0.57142v-1.1429c0-0.15829 0.12743-0.28571 0.28572-0.28571h1.1429v-0.57143zm7.4286 0v0.57143h1.1429c0.15828 0 0.28571 0.12743 0.28571 0.28571v1.1429h0.57143v-1.1429c0-0.47486-0.38229-0.85714-0.85714-0.85714zm-8.2857 7.7143v1.1429c0 0.47486 0.38228 0.85714 0.85714 0.85714h1.1429v-0.57143h-1.1429c-0.15829 0-0.28572-0.12743-0.28572-0.28572v-1.1429zm9.7143 0v1.1429c0 0.15829-0.12743 0.28572-0.28571 0.28572h-1.1429v0.57143h1.1429c0.47485 0 0.85714-0.38229 0.85714-0.85714v-1.1429z" opacity=".2" stroke-width=".0081926"/>
        <path id="path10" d="m210.29 23.429c-0.47486 0-0.85714 0.38229-0.85714 0.85714v1.1429h0.57142v-1.1429c0-0.15829 0.12743-0.28571 0.28572-0.28571h1.1429v-0.57143zm7.4286 0v0.57143h1.1429c0.15828 0 0.28571 0.12743 0.28571 0.28571v1.1429h0.57143v-1.1429c0-0.47486-0.38229-0.85714-0.85714-0.85714zm-8.2857 7.7143v1.1429c0 0.47486 0.38228 0.85714 0.85714 0.85714h1.1429v-0.57143h-1.1429c-0.15829 0-0.28572-0.12743-0.28572-0.28571v-1.1429zm9.7143 0v1.1429c0 0.15829-0.12743 0.28571-0.28571 0.28571h-1.1429v0.57143h1.1429c0.47485 0 0.85714-0.38229 0.85714-0.85714v-1.1429z" fill="#da4453" stroke-width=".0081926"/>
        <g id="g14" transform="matrix(.21429 0 0 .21429 200.51 23.299)">
            <path id="path5-3" d="m87.027 30.968c-0.2746-1.6368-0.29137-3.4529-1.3581-5.9418-1.0669-2.489-2.323-4.36-3.939-5.9453-1.6164-1.5856-3.4606-2.7914-5.7795-3.6265-2.319-0.8353-5.0461-1.2583-6.6636-1.7097-1.6173-0.4513-2.1161-0.9291-2.4081-1.5113-0.292-0.5821-0.377-1.2698-0.28-1.9015 0.0968-0.6317 0.3766-1.2138 0.5957-1.616 0.2193-0.4022 0.3811-0.631 0.246-0.7803s-0.5665-0.2214-1.2461 0.1712c-0.6797 0.3926-1.6058 1.2494-2.1585 1.9511-0.5526 0.7018-0.7283 1.2444-1.031 1.7984-0.3025 0.554-0.7286 1.1123-1.2275 1.56-0.4989 0.4476-1.0648 0.7783-2.318 1.4247-1.2533 0.6465-3.188 1.6054-5.1255 2.767-1.9373 1.1619-3.8754 2.5256-5.6173 3.9782s-3.2867 2.9936-4.3625 4.3347c-1.0757 1.341-1.6815 2.4811-2.0484 3.5172-0.367 1.0362-0.4944 1.967-0.3713 2.5481 0.1232 0.5811 0.4968 0.811 2.8857 0.3113s6.797-1.7306 9.5035-2.4048c2.7068-0.6745 1.0574-3.4622 1.8326-3.7238 0.775-0.2615 3.9809 2.0016 4.8662 1.6541 0.8851-0.3474 2.1236-0.6422 3.3745-0.936 1.2509-0.2937 2.523-0.5884 3.203-0.8495 0.6802-0.261 0.7748-0.4897 2.3416-0.5445 1.567-0.0549 4.6064 0.0624 6.7012 0.3519 2.0948 0.2894 3.2442 0.751 4.039 1.2814s1.2351 1.1299 1.6574 1.5801c0.4224 0.4503 0.8262 0.7505 1.427 1.3246 0.6008 0.574 1.3967 1.4204 2.0056 2.7065s1.0293 3.01 1.2902 3.3361-0.48013-2.0081-0.27493-2.6409c0.205-0.633 0.5148-0.8276 0.24-2.4643z" fill="#eff0f1" stroke-width=".028674"/>
            <path id="path9" d="m88.393 33.133c0.38856-0.53749 0.92765-1.3219 0.8446-1.6009-0.0831-0.27899-0.78709-0.05283-1.4508-1.152-0.66374-1.0992-1.2846-3.5192-2.2296-5.6761-0.94493-2.157-2.209-4.04-3.8253-5.6255-1.6164-1.5856-3.4605-2.7913-5.7794-3.6265-2.3189-0.83529-5.0462-1.2583-6.6635-1.7096-1.6173-0.45127-2.1161-0.92907-2.4081-1.5113-0.29202-0.58214-0.37694-1.2698-0.28007-1.9015 0.09688-0.63175 0.37663-1.2139 0.59579-1.6161 0.21924-0.4022 0.3811-0.63093 0.24603-0.78029s-0.56653-0.22137-1.2462 0.17124c-0.6797 0.39256-1.6058 1.2494-2.1584 1.9511-0.55264 0.70179-0.72832 1.2444-1.031 1.7984-0.3026 0.55389-0.72865 1.1123-1.2276 1.5599-0.49892 0.44761-1.0648 0.77834-2.318 1.4248-1.2533 0.64645-3.1881 1.6054-5.1255 2.7671-1.9373 1.1618-3.8754 2.5255-5.6173 3.9781s-3.2868 2.9936-4.3624 4.3346c-1.0757 1.3409-1.6815 2.4811-2.0485 3.5172-0.36688 1.0362-0.49437 1.9671-0.37121 2.5481 0.12312 0.58111 0.49679 0.81093 1.2169 0.4616 0.72006-0.34933 1.7836-1.2762 2.7233-2.0461 0.93973-0.76983 1.7553-1.3823 2.6641-1.8533 0.90875-0.47104 1.912-0.80135 2.7909-0.99128 0.87887-0.18997 1.6344-0.23976 2.0451-0.08037 0.41067 0.15948 0.47688 0.52901 0.51008 0.7141 0.0332 0.18518 0.0034 0.81798 0.10888 0.98147 0.10548 0.16345 0.31563 0.48894 1.0981 0.47993 0.7825-9e-3 11.828-3.3539 12.508-3.6149 0.6801-0.26107 0.77502-0.49039 1.0589-1.2077 0.28393-0.71737 0.76169-1.9347 1.3388-2.8277 0.57707-0.89306 1.2597-1.473 1.8736-1.7508 0.61396-0.27772 1.1673-0.2579 1.8553-0.14095 0.68794 0.11686 1.5164 0.33161 2.1529 0.65021 0.6365 0.31864 1.0849 0.74228 1.3257 1.1388 0.24081 0.39644 0.27355 0.76551 0.0471 1.1257-0.22637 0.36022-0.70762 0.70726-1.0912 0.82106-0.38364 0.11385-0.66085-0.0097-1.1189-0.05565-0.45812-0.04597-1.0944-0.01335-1.8029 0.30725-0.70845 0.32051-1.6294 1.1335-1.4692 1.4206 6.5776-0.0821 12.435 3.7239 14.002 7.2192 0.50315 1.1226 1.0293 3.01 1.2902 3.3361 0.26086 0.32606 0.36155-0.74569 0.53139-1.4272 0.16977-0.68148 0.40892-0.97338 0.79748-1.5109z" fill="url(#linearGradient16)" stroke-width=".065189"/>
            <path id="path15" d="m53.987 18.681 1.7426 3.6005 3.6005-1.7426-1.7427-3.6005zm5.4007-2.614 1.7426 3.6006 3.6005-1.7427-1.7426-3.6004zm-4.065 3.0785 1.8003-0.8713 0.8713 1.8002-1.8002 0.8713zm5.4008-2.614 1.8002-0.8713 0.8713 1.8003-1.8002 0.8713zm-4.1226 7.5502 1.7426 3.6005 3.6005-1.7427-1.7426-3.6004zm5.4007-2.614 0.8713 1.8003 1.8002-0.8713-0.8713-1.8002zm-4.065 3.0785 1.8003-0.8713 0.8713 1.8002-1.8002 0.8713z" color="#232629" fill="#eff0f1" stroke-width=".22886"/>
            <path id="path16" d="m67.023 7.8157c-0.20971 0.012403-0.48566 0.092749-0.82548 0.28905-0.33985 0.19628-0.74199 0.50835-1.1276 0.85934-0.19278 0.1755-0.38212 0.36171-0.55727 0.54685s-0.33579 0.36881-0.47394 0.54425c-0.55264 0.70179-0.72856 1.2454-1.0312 1.7994-0.1513 0.27694-0.33494 0.55549-0.54164 0.82028-0.10373 0.13288-0.21282 0.26102-0.32811 0.3854-0.11445 0.12346-0.23509 0.24264-0.35936 0.35415-0.49892 0.44761-1.0644 0.77801-2.3176 1.4244-0.62664 0.32322-1.4221 0.7243-2.3046 1.1901-0.88236 0.46601-1.8515 0.99722-2.8202 1.5781-1.9373 1.1618-3.875 2.5238-5.6169 3.9764-0.87044 0.72589-1.6915 1.4768-2.4296 2.2108-0.36913 0.36737-0.71837 0.73004-1.0416 1.0859-0.32331 0.35574-0.62168 0.70378-0.89059 1.039-0.53784 0.67046-0.95959 1.2899-1.2916 1.8723-0.33178 0.58218-0.5743 1.1277-0.75778 1.6458-0.18344 0.51809-0.30744 1.0078-0.36978 1.4426-1.13e-4 7.84e-4 1.13e-4 0.0018 0 0.0026-0.06194 0.4337-0.06405 0.8116-0.0026 1.1015 0.03898 0.184 0.10825 0.32855 0.20051 0.43488 0.01669 0.01905 0.03094 0.04104 0.04948 0.05729 0.08134 0.07132 0.18081 0.11704 0.29947 0.1302 0.11865 0.01317 0.2552-0.0052 0.41404-0.05729 0.07937-0.02601 0.16519-0.0605 0.2552-0.10416 0.0103-5e-3 0.02342-0.0156 0.03385-0.02083 0.04482-0.49428 0.16702-1.0685 0.388-1.6926 0.36695-1.0361 0.9711-2.1772 2.0468-3.5181 1.0756-1.341 2.6199-2.8805 4.3618-4.3331s3.6822-2.8172 5.6196-3.979c1.9374-1.1617 3.8715-2.1217 5.1248-2.7681 1.2532-0.64641 1.8187-0.97681 2.3176-1.4244 0.49892-0.44769 0.92391-1.0059 1.2265-1.5598 0.30264-0.55401 0.47856-1.095 1.0312-1.7968 0.35829-0.455 0.87158-0.96619 1.3749-1.3828 7.2e-4 -0.00275 0.0019-0.00506 0.0026-0.00781 0.05945-0.22528 0.13732-0.42981 0.22134-0.62758 0.09758-0.23238 0.1991-0.44514 0.29426-0.61976 0.16539-0.30341 0.29701-0.50725 0.29426-0.65362-5.11e-4 -0.048818-0.01571-0.090259-0.04948-0.1276-0.06753-0.074679-0.20955-0.12959-0.41925-0.11718zm-0.40884 2.453c-0.1707 0.45186-0.11198 1.4226 0.17447 2.552 0.03036 0.07668 0.0542 0.15552 0.09114 0.22916 0.29198 0.58218 0.79141 1.0591 2.4088 1.5104 1.6174 0.45131 5.613 1.3521 7.932 2.1874 2.1219 0.7642 3.8431 1.8424 5.3591 3.2342-0.27219-0.30973-0.55335-0.61368-0.84892-0.90361-1.6164-1.5856-3.4595-2.7897-5.7784-3.6248-0.57973-0.20882-1.1845-0.393-1.7916-0.55727-1.8211-0.49251-3.6592-0.81511-4.8722-1.1536-1.6173-0.45127-2.1168-0.92817-2.4088-1.5104-0.29202-0.58214-0.37551-1.2693-0.27863-1.901 0.0033-0.02125 0.0094-0.04137 0.01302-0.0625z" fill="#ffffff" opacity=".1093" stroke-width=".065189"/>
            </g>
            <path id="path11" d="m219.16 29.936c-0.0589-0.35076-0.0624-0.73994-0.29103-1.2733-0.22863-0.53338-0.49781-0.93432-0.84411-1.274-0.34638-0.33978-0.74159-0.59818-1.2385-0.77714-0.49695-0.179-1.0814-0.26965-1.428-0.36638-0.34658-0.09671-0.45347-0.1991-0.51605-0.32386-0.0626-0.12474-0.0808-0.27211-0.06-0.40748 0.0207-0.13537 0.0807-0.26011 0.12766-0.3463 0.047-0.08619 0.0817-0.13522 0.0527-0.16721-0.029-0.03199-0.1214-0.04744-0.26703 0.03669-0.14566 0.08413-0.34411 0.26774-0.46255 0.41811-0.11842 0.15039-0.15607 0.26667-0.22094 0.38539-0.0648 0.11872-0.15614 0.23836-0.26305 0.3343-0.10691 0.09592-0.22818 0.16679-0.49673 0.30531-0.26858 0.13854-0.68317 0.34403-1.0984 0.59295-0.41515 0.24899-0.83047 0.54122-1.2038 0.8525-0.37328 0.31128-0.70432 0.64151-0.93486 0.9289-0.23052 0.28737-0.36034 0.53168-0.43896 0.75372-0.0787 0.22205-0.10595 0.42152-0.0796 0.54604 0.0264 0.12453 0.10646 0.17379 0.61839 0.06671s1.4566-0.37086 2.0366-0.51534c0.58005-0.14454 0.22659-0.74193 0.39271-0.79799 0.16608-0.05604 0.85309 0.42893 1.0428 0.35446 0.18967-0.07445 0.45508-0.13762 0.72314-0.20058 0.26806-0.06294 0.54066-0.12609 0.68638-0.18204 0.14576-0.05593 0.16604-0.10494 0.50179-0.11668 0.3358-0.01176 0.98713 0.01337 1.436 0.07541 0.44891 0.06202 0.69522 0.16094 0.86554 0.2746 0.17032 0.11366 0.26467 0.24213 0.35517 0.33861 0.0905 0.0965 0.17705 0.16083 0.3058 0.28385 0.12874 0.123 0.2993 0.30438 0.42978 0.57999 0.13049 0.2756 0.22058 0.64503 0.27649 0.71491 0.0559 0.06988-0.10289-0.43032-0.0589-0.56593 0.0439-0.13565 0.11032-0.17735 0.0514-0.52809z" fill="#eff0f1" stroke-width=".0061446"/>
            <path id="path12" d="m219.45 30.4c0.0833-0.11518 0.19879-0.28328 0.18099-0.34306-0.0178-0.05979-0.16867-0.01132-0.3109-0.24687-0.14224-0.23555-0.27528-0.75414-0.47779-1.2164-0.20249-0.46223-0.47338-0.86575-0.81974-1.2055-0.34639-0.33978-0.74157-0.59816-1.2385-0.77714-0.49693-0.179-1.0814-0.26965-1.428-0.36636-0.34658-0.09671-0.45347-0.1991-0.51605-0.32386-0.0626-0.12475-0.0808-0.27211-0.06-0.40748 0.0208-0.13538 0.0807-0.26013 0.12767-0.34632 0.047-0.08619 0.0817-0.1352 0.0527-0.16721-0.0289-0.03201-0.1214-0.04744-0.26705 0.03669-0.14565 0.08412-0.34411 0.26774-0.46253 0.41811-0.11843 0.15039-0.15608 0.26667-0.22094 0.38539-0.0648 0.1187-0.15614 0.23836-0.26307 0.33428-0.10691 0.09592-0.22818 0.16679-0.49673 0.30533-0.26858 0.13853-0.68319 0.34403-1.0984 0.59297-0.41515 0.24897-0.83047 0.5412-1.2038 0.85248s-0.70434 0.64151-0.93484 0.92888c-0.23052 0.28735-0.36033 0.53168-0.43898 0.75372-0.0786 0.22205-0.10594 0.42154-0.0796 0.54604 0.0264 0.12453 0.10646 0.17378 0.26078 0.09892 0.1543-0.07486 0.38221-0.27348 0.58358-0.43847 0.20138-0.16497 0.37615-0.29622 0.5709-0.39715 0.19474-0.10094 0.40974-0.17172 0.59808-0.21243 0.18834-0.04071 0.35024-0.05138 0.43825-0.01722 0.088 0.03418 0.10219 0.11336 0.10931 0.15303 7e-3 0.03968 7.3e-4 0.17529 0.0233 0.21032 0.0226 0.03503 0.0676 0.10478 0.23532 0.10285 0.16768-0.0019 2.5347-0.71872 2.6804-0.77465 0.14574-0.05595 0.16608-0.10509 0.22692-0.2588 0.0608-0.15373 0.16322-0.4146 0.28689-0.60596 0.12367-0.19138 0.26995-0.31566 0.40151-0.37519 0.13156-0.05951 0.25014-0.05527 0.39758-0.0302 0.14742 0.02504 0.32495 0.07106 0.46135 0.13934 0.1364 0.06828 0.23249 0.15907 0.28409 0.24404 0.0516 0.08495 0.0586 0.16404 0.0101 0.24123-0.0485 0.07719-0.15163 0.15156-0.23383 0.17595-0.0822 0.0244-0.14162-0.0021-0.23978-0.01193-0.0982-0.0099-0.23452-0.0029-0.38635 0.06584-0.15182 0.06868-0.34917 0.2429-0.31484 0.30443 1.4095-0.01759 2.6648 0.79801 3.0006 1.547 0.10782 0.24057 0.22057 0.64503 0.27648 0.71491 0.0559 0.06987 0.0775-0.1598 0.11387-0.30584 0.0364-0.14604 0.0876-0.20859 0.1709-0.32378z" fill="url(#linearGradient1)" stroke-width=".01397"/>
            <path id="path13" d="m212.08 27.303 0.37343 0.77157 0.77156-0.37343-0.37345-0.77157zm1.1573-0.56017 0.37342 0.77159 0.77157-0.37345-0.37343-0.77154zm-0.87111 0.6597 0.38579-0.18671 0.18672 0.38577-0.38578 0.18672zm1.1574-0.56016 0.38577-0.18672 0.18672 0.38579-0.38578 0.18672zm-0.88345 1.618 0.37343 0.77157 0.77157-0.37345-0.37343-0.77154zm1.1573-0.56016 0.18671 0.38579 0.38578-0.18672-0.18672-0.38577zm-0.87111 0.6597 0.3858-0.18672 0.18671 0.38577-0.38577 0.18672z" color="#232629" fill="#eff0f1" stroke-width=".049044"/>
            <path id="path14" d="m214.87 24.974c-0.0449 0.0027-0.10408 0.01988-0.1769 0.06194-0.0728 0.04206-0.159 0.10894-0.24164 0.18415-0.0413 0.03761-0.0819 0.07751-0.11942 0.11719-0.0375 0.03968-0.072 0.07903-0.10156 0.11663-0.11843 0.15039-0.15613 0.26688-0.22098 0.3856-0.0324 0.05935-0.0718 0.11904-0.11607 0.17578-0.0222 0.02848-0.0456 0.05593-0.0703 0.08259-0.0245 0.02646-0.0504 0.052-0.077 0.07589-0.10692 0.09592-0.2281 0.16672-0.49665 0.30524-0.13429 0.06927-0.30475 0.15521-0.49386 0.25503-0.18909 0.09986-0.39677 0.2137-0.60436 0.33818-0.41515 0.24897-0.83039 0.54084-1.2037 0.85212-0.18653 0.15555-0.36247 0.31647-0.52064 0.47376-0.0791 0.07873-0.15395 0.15644-0.22321 0.2327-0.0693 0.07623-0.13323 0.15082-0.19085 0.22265-0.11526 0.14368-0.20564 0.27642-0.27678 0.40122-0.0711 0.12476-0.12307 0.24166-0.16239 0.35268-0.0393 0.11102-0.0659 0.21597-0.0792 0.30914-3e-5 1.68e-4 2e-5 3.86e-4 0 5.57e-4 -0.0133 0.09294-0.0137 0.17392-5.6e-4 0.23604 8e-3 0.03943 0.0232 0.07041 0.043 0.09319 4e-3 0.0041 7e-3 0.0088 0.0106 0.01228 0.0174 0.01528 0.0387 0.02508 0.0642 0.0279 0.0254 0.0028 0.0547-0.0011 0.0887-0.01228 0.017-0.0056 0.0354-0.01297 0.0547-0.02232 2e-3 -0.0011 5e-3 -0.0033 7e-3 -0.0045 0.01-0.10592 0.0358-0.22897 0.0831-0.36271 0.0786-0.22203 0.2081-0.46656 0.43862-0.75391 0.23049-0.28737 0.56143-0.61728 0.93471-0.92856s0.78907-0.60371 1.2042-0.85268c0.41518-0.24894 0.82964-0.45467 1.0982-0.59319 0.26855-0.13852 0.38974-0.20932 0.49665-0.30524 0.10691-0.09594 0.19799-0.21556 0.26283-0.33426 0.0649-0.11872 0.10255-0.23465 0.22098-0.38504 0.0768-0.0975 0.18677-0.20705 0.29463-0.29633 1.6e-4 -5.89e-4 4.1e-4 -0.0011 5.6e-4 -0.0017 0.0127-0.04828 0.0294-0.09211 0.0474-0.13449 0.0209-0.0498 0.0427-0.09539 0.0631-0.13281 0.0354-0.06502 0.0637-0.1087 0.0631-0.14007-1.1e-4 -0.01046-3e-3 -0.01934-0.0106-0.02734-0.0145-0.016-0.0449-0.02777-0.0899-0.02511zm-0.0876 0.52566c-0.0366 0.09683-0.024 0.30486 0.0374 0.54688 7e-3 0.01643 0.0116 0.03333 0.0195 0.04911 0.0626 0.12476 0.1696 0.22696 0.51619 0.32367 0.3466 0.09671 1.2028 0.28975 1.6998 0.46875 0.45471 0.16376 0.82355 0.39482 1.1484 0.69307-0.0583-0.06637-0.11858-0.13151-0.18192-0.19364-0.34638-0.33978-0.74135-0.59782-1.2383-0.77677-0.12423-0.04475-0.25383-0.08422-0.38392-0.11942-0.39026-0.10554-0.78415-0.17467-1.0441-0.24721-0.34658-0.0967-0.45362-0.1989-0.51619-0.32367-0.0626-0.12475-0.0805-0.272-0.0597-0.40737 7.1e-4 -0.0046 2e-3 -0.0089 3e-3 -0.01339z" fill="#ffffff" opacity=".1093" stroke-width=".01397"/>
        </g>
    </g>
    <g id="layer2" transform="translate(0 .87383)" display="none" fill="#000000">
        <rect id="rect2" x="50" y="-25" width="924" height="74.345" fill-rule="evenodd"/>
        <rect id="rect3" x="-38" y="450" width="1030.9" height="150" fill-rule="evenodd"/>
        <rect id="rect4" x="974" y="-58.874" width="88" height="758.87" fill-rule="evenodd"/>
        <rect id="rect5" x="-25.564" y="-58.874" width="75.564" height="720.14" fill-rule="evenodd"/>
        <circle id="path5-7" cx="772.54" cy="121.56" r="41.5" opacity=".45" stroke-width=".37795" style="paint-order:fill markers stroke"/>
        <circle id="path5" cx="124.5" cy="121.82" r="41.5" opacity=".45" stroke-width=".37795" style="paint-order:fill markers stroke"/>
        <circle id="path5-7-3" cx="905.5" cy="121.56" r="41.5" opacity=".45" stroke-width=".37795" style="paint-order:fill markers stroke"/>
    </g>
</svg>
